HIERARCHY
ROOT hip
{
  OFFSET 0 0 0
  CHANNELS 6 Xposition Yposition Zposition Zrotation Yrotation Xrotation
  JOINT abdomen
  {
    OFFSET 0 20.6881 -0.73152
    CHANNELS 3 Zrotation Xrotation Yrotation
    JOINT chest
    {
      OFFSET 0 11.7043 -0.48768
      CHANNELS 3 Zrotation Xrotation Yrotation
      JOINT neck
      {
        OFFSET 0 22.1894 -2.19456
        CHANNELS 3 Zrotation Xrotation Yrotation
        JOINT head
        {
          OFFSET -0.24384 7.07133 1.2192
          CHANNELS 3 Zrotation Xrotation Yrotation
          JOINT leftEye
          {
            OFFSET 4.14528 8.04674 8.04672
            CHANNELS 3 Zrotation Xrotation Yrotation
            End Site
            {
              OFFSET 1 0 0
            }
          }
          JOINT rightEye
          {
            OFFSET -3.6576 8.04674 8.04672
            CHANNELS 3 Zrotation Xrotation Yrotation
            End Site
            {
              OFFSET 1 0 0
            }
          }
        }
      }
      JOINT rCollar
      {
        OFFSET -2.68224 19.2634 -4.8768
        CHANNELS 3 Zrotation Xrotation Yrotation
        JOINT rShldr
        {
          OFFSET -8.77824 -1.95073 1.46304
          CHANNELS 3 Zrotation Xrotation Yrotation
          JOINT rForeArm
          {
            OFFSET -28.1742 -1.7115 0.48768
            CHANNELS 3 Zrotation Xrotation Yrotation
            JOINT rHand
            {
              OFFSET -22.5879 0.773209 7.07136
              CHANNELS 3 Zrotation Xrotation Yrotation
              JOINT rThumb1
              {
                OFFSET -1.2192 -0.487915 3.41376
                CHANNELS 3 Zrotation Xrotation Yrotation
                JOINT rThumb2
                {
                  OFFSET -3.37035 -0.52449 3.41376
                  CHANNELS 3 Zrotation Xrotation Yrotation
                  End Site
                  {
                    OFFSET -1.78271 -1.18214 1.43049
                  }
                }
              }
              JOINT rIndex1
              {
                OFFSET -7.75947 0.938293 5.60832
                CHANNELS 3 Zrotation Xrotation Yrotation
                JOINT rIndex2
                {
                  OFFSET -2.54057 -0.884171 1.56538
                  CHANNELS 3 Zrotation Xrotation Yrotation
                  End Site
                  {
                    OFFSET -1.62519 -0.234802 1.16502
                  }
                }
              }
              JOINT rMid1
              {
                OFFSET -8.24714 1.18213 3.41376
                CHANNELS 3 Zrotation Xrotation Yrotation
                JOINT rMid2
                {
                  OFFSET -3.10165 -0.590103 1.0647
                  CHANNELS 3 Zrotation Xrotation Yrotation
                  End Site
                  {
                    OFFSET -2.48547 -0.328903 0.83742
                  }
                }
              }
              JOINT rRing1
              {
                OFFSET -8.82822 0.546677 1.51678
                CHANNELS 3 Zrotation Xrotation Yrotation
                JOINT rRing2
                {
                  OFFSET -2.60934 -0.819778 -0.0198488
                  CHANNELS 3 Zrotation Xrotation Yrotation
                  End Site
                  {
                    OFFSET -2.33842 -0.294052 0.168128
                  }
                }
              }
              JOINT rPinky1
              {
                OFFSET -8.27202 -0.0477905 -0.4584
                CHANNELS 3 Zrotation Xrotation Yrotation
                JOINT rPinky2
                {
                  OFFSET -1.82734 -0.647385 -0.700984
                  CHANNELS 3 Zrotation Xrotation Yrotation
                  End Site
                  {
                    OFFSET -1.69225 -0.51767 -0.607171
                  }
                }
              }
            }
          }
        }
      }
      JOINT lCollar
      {
        OFFSET 2.68224 19.2634 -4.8768
        CHANNELS 3 Zrotation Xrotation Yrotation
        JOINT lShldr
        {
          OFFSET 8.77824 -1.95073 1.46304
          CHANNELS 3 Zrotation Xrotation Yrotation
          JOINT lForeArm
          {
            OFFSET 28.1742 -1.7115 0.48768
            CHANNELS 3 Zrotation Xrotation Yrotation
            JOINT lHand
            {
              OFFSET 22.5879 0.773209 7.07136
              CHANNELS 3 Zrotation Xrotation Yrotation
              JOINT lThumb1
              {
                OFFSET 1.2192 -0.487915 3.41376
                CHANNELS 3 Zrotation Xrotation Yrotation
                JOINT lThumb2
                {
                  OFFSET 3.37035 -0.52449 3.41376
                  CHANNELS 3 Zrotation Xrotation Yrotation
                  End Site
                  {
                    OFFSET 1.78271 -1.18214 1.43049
                  }
                }
              }
              JOINT lIndex1
              {
                OFFSET 7.75947 0.938293 5.60832
                CHANNELS 3 Zrotation Xrotation Yrotation
                JOINT lIndex2
                {
                  OFFSET 2.54057 -0.884171 1.56538
                  CHANNELS 3 Zrotation Xrotation Yrotation
                  End Site
                  {
                    OFFSET 1.62519 -0.234802 1.16502
                  }
                }
              }
              JOINT lMid1
              {
                OFFSET 8.24714 1.18213 3.41376
                CHANNELS 3 Zrotation Xrotation Yrotation
                JOINT lMid2
                {
                  OFFSET 3.10165 -0.590103 1.0647
                  CHANNELS 3 Zrotation Xrotation Yrotation
                  End Site
                  {
                    OFFSET 2.48547 -0.328903 0.83742
                  }
                }
              }
              JOINT lRing1
              {
                OFFSET 8.82822 0.546677 1.51678
                CHANNELS 3 Zrotation Xrotation Yrotation
                JOINT lRing2
                {
                  OFFSET 2.60934 -0.819778 -0.0198488
                  CHANNELS 3 Zrotation Xrotation Yrotation
                  End Site
                  {
                    OFFSET 2.33842 -0.294052 0.168128
                  }
                }
              }
              JOINT lPinky1
              {
                OFFSET 8.27202 -0.0477905 -0.4584
                CHANNELS 3 Zrotation Xrotation Yrotation
                JOINT lPinky2
                {
                  OFFSET 1.82734 -0.647385 -0.700984
                  CHANNELS 3 Zrotation Xrotation Yrotation
                  End Site
                  {
                    OFFSET 1.69225 -0.51767 -0.607171
                  }
                }
              }
            }
          }
        }
      }
    }
  }
  JOINT rButtock
  {
    OFFSET -8.77824 4.35084 1.2192
    CHANNELS 3 Zrotation Xrotation Yrotation
    JOINT rThigh
    {
      OFFSET 0 -1.70687 -2.19456
      CHANNELS 3 Zrotation Xrotation Yrotation
      JOINT rShin
      {
        OFFSET 0 -36.8199 0.73152
        CHANNELS 3 Zrotation Xrotation Yrotation
        JOINT rFoot
        {
          OFFSET 0.73152 -45.1104 -5.12064
          CHANNELS 3 Zrotation Xrotation Yrotation
          End Site
          {
            OFFSET -1.1221 -3.69964 12.103
          }
        }
      }
    }
  }
  JOINT lButtock
  {
    OFFSET 8.77824 4.35084 1.2192
    CHANNELS 3 Zrotation Xrotation Yrotation
    JOINT lThigh
    {
      OFFSET 0 -1.70687 -2.19456
      CHANNELS 3 Zrotation Xrotation Yrotation
      JOINT lShin
      {
        OFFSET 0 -36.8199 0.73152
        CHANNELS 3 Zrotation Xrotation Yrotation
        JOINT lFoot
        {
          OFFSET -0.73152 -45.1104 -5.12064
          CHANNELS 3 Zrotation Xrotation Yrotation
          End Site
          {
            OFFSET 1.1221 -3.69964 12.103
          }
        }
      }
    }
  }
}
MOTION
Frames:	9
Frame Time:	0.03333
0.0 0.0 0.0 0.0 0.0 0.0 0.0 0.0 0.0 0.0 0.0 0.0 0.0 0.0 0.0 0.0 0.0 0.0 0.0 0.0 0.0 0.0 0.0 0.0 0.0 0.0 0.0 0.0 0.0 0.0 0.0 0.0 0.0 0.0 0.0 0.0 0.0 0.0 0.0 0.0 0.0 0.0 0.0 0.0 0.0 0.0 0.0 0.0 0.0 0.0 0.0 0.0 0.0 0.0 0.0 0.0 0.0 0.0 0.0 0.0 0.0 0.0 0.0 0.0 0.0 0.0 0.0 0.0 0.0 0.0 0.0 0.0 0.0 0.0 0.0 0.0 0.0 0.0 0.0 0.0 0.0 0.0 0.0 0.0 0.0 0.0 0.0 0.0 0.0 0.0 0.0 0.0 0.0 0.0 0.0 0.0 0.0 0.0 0.0 0.0 0.0 0.0 0.0 0.0 0.0 0.0 0.0 0.0 0.0 0.0 0.0 0.0 0.0 0.0 0.0 0.0 0.0 0.0 0.0 0.0 0.0 0.0 0.0 0.0 0.0 0.0 0.0 0.0 0.0 0.0 0.0 0.0
0.3077 73.28529999999999 -0.4134 -153.390231 65.744326 -152.534103 4.902813 9.556687 116.251912 -4.300576 -0.164988 -100.106959 9.676949 24.42948 109.884841 -35.82959 18.595618 -105.329177 0.002716 -0.0 -0.000309 -0.003314 0.0 -0.004393 -143.620379 38.23348 148.080835 -68.398518 30.548289 39.82402 -70.995836 -25.633896 -104.571579 42.449571 -59.039227 31.661027 76.385154 -49.199781 28.871194 -13.76953 -39.165106 -29.698381 -150.884419 -16.291211 120.979964 -162.485318 -17.896883 119.588002 -36.034356 51.723783 29.83153 3.331679 0.217608 0.098488 0.005517 1.688505 0.529904 -148.358025 -76.775684 -171.090805 -146.205823 15.406454 -142.729707 -148.212962 13.442589 -142.094239 -3.191654 -25.838903 5.074443 -65.087773 -3.894843 7.475898 9.045088 29.059044 -55.10986 4.45538 18.315018 -0.670758 103.199426 36.331846 -60.111881 3.612255 -20.150461 -26.621491 46.20756 39.654463 -36.316896 174.805993 -26.405039 -110.91771 175.931748 -50.680392 -144.036595 148.129041 31.497132 -134.176805 66.263359 72.868981 -83.836335 -4.973679 -25.643336 7.809881 -1.482468 4.003569 -1.360946 156.116206 43.495982 149.190044 179.985761 75.750034 0.009742 170.167252 65.101423 -169.182401 -13.664166 -49.635814 152.626933 -27.202764 -15.495103 -22.525679 0.0 -0.000392 0.001332 57.718507 -53.477432 -23.42487 -68.268318 20.605876 -177.725865 -7.819594 -24.488292 -106.754636
0.5756 72.962 -0.49069999999999997 -152.567931 65.519462 -151.677472 5.455071 11.65245 65.268784 -4.521694 -4.101457 -49.259477 -5.898753 31.466517 -141.635795 25.928502 41.20656 132.29756 -0.002979 -0.0 0.001818 -0.00332 0.0 -0.002808 -0.049582 0.29233 0.06517 -52.005249 67.509193 117.416562 146.958197 68.096409 127.842496 164.697348 -21.671158 144.071091 -0.441776 0.435157 0.070128 10.336472 -14.597499 -7.738634 -162.918301 -37.929157 122.630884 -70.775491 57.504391 55.804744 -160.09772 -4.901232 142.968919 2.662067 1.634132 0.584782 -72.756931 -72.143182 -89.772262 -68.800498 -82.384577 -94.791776 -135.070375 -13.383071 -132.467762 -81.000229 -52.59689 -80.986606 -4.209268 -43.443102 8.383678 -75.65713 39.485009 23.827436 176.447906 13.299987 -93.776769 -165.681837 -27.101709 -142.017434 -2.012012 -1.996854 0.274904 45.700674 28.741902 -40.343144 153.453954 -21.06775 -121.743972 165.997124 -25.910724 -119.154218 -0.540547 -1.590012 0.295244 88.699854 64.08244 -80.423496 145.119192 0.185975 179.185566 145.460814 -49.928122 167.767086 145.694705 13.732265 142.281242 85.953047 -51.848971 85.277578 0.000217 0.000607 -0.0 -3.923102 -9.584339 -139.603853 -51.942825 -23.503135 -161.829448 145.022445 60.119903 123.079562 -0.00076 0.000607 -0.00076 56.251496 -54.659646 61.408608 25.025224 71.398084 -177.87147 -92.070685 39.946353 166.192507
0.8832 72.64 -0.5630999999999999 -150.970764 65.309683 -150.427985 10.091407 12.862306 -38.641813 2.639004 -6.461325 54.533955 3.136896 13.332343 33.544778 -17.047542 -23.717224 -37.89327 -0.002139 -0.0 0.001357 -0.002659 0.0 -0.001985 -155.613397 -4.236272 161.991599 -41.615414 7.083944 -6.294287 94.990033 17.986008 -112.005742 -169.999824 49.544338 145.197171 4.530696 -4.514178 -0.520851 143.600051 -85.070908 72.14664 -162.920047 -37.92899 122.629772 -10.156791 36.228504 3.346753 -164.637416 -19.283431 144.734936 2.825414 1.012635 0.49113 -145.120165 0.267821 -179.212361 -35.013004 -74.874985 -56.320831 -126.797107 -26.617696 -124.510341 -76.599165 -53.151413 -76.935314 80.166427 68.371915 -83.26073 -77.611393 -29.902782 -90.025047 -100.418439 -16.801987 -98.97053 153.772532 60.462518 -130.110181 175.329734 -12.97496 -89.798285 18.030579 -43.427854 -1.214571 13.869799 18.815319 -9.291152 4.830083 18.438547 -4.286137 0.128582 0.375498 -0.071606 -9.844581 -20.361893 1.550417 0.019443 -1.72536 0.541185 155.97548 -13.74842 -173.488866 146.223695 15.470255 142.748889 146.6541 8.915991 141.025002 -0.003399 0.000651 -0.003399 -5.638478 -8.651285 104.884823 46.192703 -27.442039 -55.654654 -27.506986 -18.273303 -86.473269 0.0 -0.000876 0.001087 58.671358 -56.584948 154.222901 70.269896 -6.932299 169.071692 142.966367 -15.373372 -116.370297
1.2204 72.4484 -0.6842 -149.942617 65.21287 -149.721915 7.753998 13.43911 27.78862 -2.523557 -6.485978 -11.725609 3.420089 13.408199 34.73307 -17.914966 -23.526931 -39.191867 -0.001475 -0.0 0.003495 -0.001475 -0.0 0.003495 3.342732 -27.666922 -5.408534 -47.246221 -80.577846 -111.48437 11.099985 -43.034165 -84.417342 159.800122 -31.394921 141.101155 -78.030555 38.688537 42.412949 -130.534391 -22.436494 81.678557 37.21496 -57.918098 -0.644308 -17.357348 38.876778 14.472359 6.532892 -20.414966 -2.717944 -155.554115 16.785356 139.59366 -145.120344 0.226868 -179.199064 11.906878 29.6024 -5.640912 -135.819555 -11.890885 -133.183839 -160.872417 53.664205 -146.961435 -4.239256 -44.742821 8.647045 -60.362921 2.814963 20.847527 4.057278 32.235817 -57.337129 6.157386 18.892033 -0.324045 177.936089 -15.505817 -89.547996 122.481814 16.452883 -58.984782 -8.877107 -15.576536 4.123254 174.756367 -33.339497 -107.266516 -2.099912 -6.305484 1.081016 -3.411989 -0.609085 0.106237 0.00017 0.063714 -0.020886 5.750698 61.785164 -18.403795 4.662082 -10.865986 4.365012 -1.599166 -2.992804 0.950852 -179.993979 75.749956 -0.00412 168.833586 68.970211 0.0 6.968276 60.572849 173.691522 -87.006889 54.22288 -158.272383 -179.977995 75.750363 -0.015056 -152.125171 4.011693 89.938213 76.748574 -9.94261 54.536914 -64.506652 -24.194501 -176.671686
1.5171999999999999 72.3259 -0.8000999999999999 -150.225904 64.645238 -150.238183 7.895311 13.542284 28.389904 -2.4371 -6.447007 -12.914069 5.883415 14.691458 49.58293 -25.826637 -17.407898 -54.492593 0.002541 0.0 0.000941 -0.003149 -0.0 0.001569 -159.220738 -48.72483 170.568405 -37.401772 -21.632502 -41.473104 1.999395 2.075525 -90.892417 156.105822 -37.537299 138.390566 113.262341 -50.398532 54.830011 -160.602467 -10.678261 116.851193 17.76952 -31.91822 -5.95214 -153.025218 -6.232623 111.28764 -167.375756 -28.008286 145.269736 -172.378845 -31.348124 143.670827 -0.0015 -0.060741 -0.019765 7.45358 26.544808 4.024925 -75.778847 -51.670138 -74.249101 -79.92742 -53.57771 -80.487798 159.221548 -48.028743 -170.413798 99.536356 -46.14996 82.807208 -20.277015 38.232089 97.994669 -173.381655 -10.113569 -144.417816 0.441662 0.435219 -0.069907 -33.746259 -55.365774 17.783989 -16.96994 -30.493008 5.897866 -14.267083 0.923367 1.670921 161.518584 -9.304373 -143.625146 18.279797 42.119056 -14.87375 75.674405 -72.117293 92.828546 150.591908 -14.793525 -178.35026 -17.32105 60.660071 -12.790025 -2.364828 2.37813 -0.129094 0.003652 0.000103 0.001826 -2.787737 -6.676579 -99.369604 -57.560943 8.817917 -145.482105 -141.046312 -8.366997 -178.245106 0.003652 0.000103 0.001826 56.592449 -56.336737 52.198954 29.405129 64.400184 32.29036 40.05352 -56.881705 -61.052209
1.8453000000000002 72.2374 -0.9147000000000001 -150.828788 63.643138 -150.897678 7.035845 12.056343 73.112983 -4.534408 -3.522377 -58.045175 -10.623863 26.533535 -102.220901 40.30012 21.796978 94.222071 0.003057 -0.0 -0.002147 -0.00263 0.0 -0.001508 4.223647 -44.025456 -8.502295 -118.235785 -2.774203 -162.581075 176.115048 -51.509862 -127.075764 -10.707833 44.152734 4.197158 -97.282293 37.462236 56.025272 -160.769421 -31.973362 78.842127 -8.570717 12.509325 5.44934 -99.887027 44.521704 77.335409 -169.088852 -33.247451 145.375315 -13.71666 36.279463 11.055283 -145.111934 -0.66772 -178.917221 -66.830303 87.686415 80.151932 25.918975 79.094115 10.827658 -153.732655 29.259084 -146.198484 -4.223863 -44.025558 8.500828 -65.119916 15.014062 19.865307 177.555025 -13.811026 -90.212759 -169.279855 -22.529777 -142.850139 172.745266 -10.424002 -89.928983 177.108674 -13.604602 -93.613945 19.170338 24.114564 -13.381034 100.864441 45.091121 -77.049948 142.379308 33.884915 -130.259336 -27.656599 -57.437629 -5.342082 74.841646 72.962948 -92.827243 -5.198833 26.932865 0.935981 152.348282 37.910353 147.689809 -0.778483 -2.607792 2.710846 179.990438 75.749865 0.006542 171.475846 69.065883 173.073198 0.805112 -49.114935 -150.555184 -69.308373 36.185356 -20.948681 0.000426 0.001279 -0.000548 57.904984 -57.247244 -26.258979 -69.557465 10.655162 -3.220941 149.990968 5.717066 -99.429427
2.1127 71.9952 -1.169 -151.07392 63.508635 -151.363102 10.651686 13.448041 -38.963165 2.770117 -6.080743 53.78589 -10.965631 19.61379 -60.583594 38.773208 -4.263943 60.777114 -0.002206 0.0 -0.001845 -0.001591 -0.0 0.001446 2.530198 -18.881264 -3.793176 -23.938468 -86.342189 -88.260142 24.596198 -50.261529 -79.193452 162.377435 -25.35174 143.301734 3.594855 -3.575618 -0.442288 20.20852 -36.792817 -17.361703 174.383437 -63.060197 113.273943 -28.799113 48.979384 20.752728 -57.866018 59.220238 50.523366 -179.645286 -48.72923 141.253903 -145.112636 -0.383512 -179.007247 -16.046835 -68.332124 -37.229405 -142.798558 4.944433 -139.688171 -147.196041 11.07096 -141.557081 159.221496 -48.380738 -170.492196 -126.398183 37.800195 130.07366 -173.701038 -4.524901 -89.427078 -172.649357 -13.376812 -144.026226 175.330371 -12.97471 -89.798148 142.217262 10.060254 -73.352819 148.886401 -12.6093 -120.245639 168.27261 -28.434352 -118.774888 -12.028333 -37.299377 3.217519 -2.970774 0.385887 -0.070014 145.10019 -1.520943 178.649826 -12.21596 36.613494 4.85104 23.391818 -36.349934 22.491685 9.074437 -25.359959 11.260632 -0.005926 0.00066 -0.002963 -0.828785 -3.849567 -71.745032 -43.589689 18.859178 86.098459 -123.292759 26.489198 23.954654 -0.000525 -0.000978 0.000675 56.252496 -57.303818 -0.0 -64.133321 36.857538 -10.411298 15.02542 -49.047482 107.608545
2.418 71.75540000000001 -1.4673 -151.952155 63.858619 -152.854564 5.974176 13.038855 79.565081 -4.710688 -3.112849 -64.306838 -5.607124 31.376187 -141.662503 26.998959 42.432948 130.661284 -0.003177 -0.0 0.000212 0.002508 -0.0 -0.000441 -130.419271 54.548607 134.286606 162.141435 6.300427 132.2724 150.229507 -65.508017 50.693422 161.331556 -26.751425 142.988957 6.463881 -6.452584 -0.635199 -13.177282 13.294709 7.430095 -19.169547 24.114749 13.381202 -166.099816 -16.095591 110.481954 89.035091 -81.393576 59.761096 -170.570295 -26.234751 144.080983 -145.121654 1.892829 -179.72357 -24.089921 -71.882653 -45.178596 12.250873 41.425194 10.280549 -148.410137 12.715403 -143.639293 -0.118121 -0.714024 0.158124 50.729874 64.821535 -119.580693 -47.886577 81.444791 132.803592 -171.642937 -16.193043 -143.735286 -114.538516 -50.244892 -55.721439 86.0594 35.279388 -40.975531 108.428146 34.160597 -91.74238 119.968344 44.06114 -92.186637 36.036285 51.722625 -29.833507 -7.982957 -13.98154 1.222995 0.019219 -1.726221 0.541397 -11.633949 -26.230115 3.154749 149.472501 26.863451 145.481741 -16.637077 43.848107 -6.087524 -179.999514 75.749117 -0.000502 173.722154 71.333255 -176.045532 5.339667 -58.489596 70.242097 171.77201 9.92618 -70.440674 0.001503 -0.0011 0.000751 56.758883 -58.606106 -119.225251 -61.676305 -69.437718 -83.39768 -68.044507 -12.553401 -178.305319
